<?xml version="1.0" encoding="UTF-8" standalone="no"?>
<!DOCTYPE svg PUBLIC "-//W3C//DTD SVG 1.1//EN"
 "http://www.w3.org/Graphics/SVG/1.1/DTD/svg11.dtd">
<!-- Generated by graphviz version 12.2.1 (20241206.2353)
 -->
<!-- Title: M1 Pages: 1 -->
<svg width="1232pt" height="1016pt"
 viewBox="0.00 0.00 1232.19 1016.50" xmlns="http://www.w3.org/2000/svg" xmlns:xlink="http://www.w3.org/1999/xlink">
<g id="graph0" class="graph" transform="scale(1 1) rotate(0) translate(4 1012.5)">
<title>M1</title>
<polygon fill="white" stroke="none" points="-4,4 -4,-1012.5 1228.19,-1012.5 1228.19,4 -4,4"/>
<g id="clust1" class="cluster">
<title>cluster_state_tabs</title>
<polygon fill="#eef5ff" stroke="#4a90e2" points="166.25,-909.5 166.25,-1000.5 505.32,-1000.5 505.32,-909.5 166.25,-909.5"/>
<text text-anchor="middle" x="335.78" y="-983.2" font-family="Helvetica,sans-Serif" font-size="14.00">crates/state&#45;tabs/</text>
</g>
<g id="clust2" class="cluster">
<title>cluster_driver_buffers</title>
<polygon fill="none" stroke="#e07b3a" stroke-dasharray="5,2" points="702.82,-165.5 702.82,-364.5 1098.71,-364.5 1098.71,-165.5 702.82,-165.5"/>
<text text-anchor="middle" x="900.76" y="-349.1" font-family="Helvetica,sans-Serif" font-size="12.00">crates/driver&#45;buffers/</text>
</g>
<g id="clust3" class="cluster">
<title>cluster_dbc</title>
<polygon fill="#fff4ee" stroke="#e07b3a" points="710.82,-173.5 710.82,-254.5 1087.71,-254.5 1087.71,-173.5 710.82,-173.5"/>
<text text-anchor="middle" x="899.26" y="-239.1" font-family="Helvetica,sans-Serif" font-size="12.00">core/ (portable)</text>
</g>
<g id="clust4" class="cluster">
<title>cluster_dbn</title>
<polygon fill="#ffeee0" stroke="#c35a1e" points="986.96,-262.5 986.96,-335.5 1090.71,-335.5 1090.71,-262.5 986.96,-262.5"/>
<text text-anchor="middle" x="1038.84" y="-320.1" font-family="Helvetica,sans-Serif" font-size="12.00">native/ (desktop)</text>
</g>
<g id="clust5" class="cluster">
<title>cluster_driver_terminal</title>
<polygon fill="none" stroke="#8b5cf6" stroke-dasharray="5,2" points="513.32,-372.5 513.32,-564.5 1216.19,-564.5 1216.19,-372.5 513.32,-372.5"/>
<text text-anchor="middle" x="864.75" y="-549.1" font-family="Helvetica,sans-Serif" font-size="12.00">crates/driver&#45;terminal/</text>
</g>
<g id="clust6" class="cluster">
<title>cluster_dtc</title>
<polygon fill="#f4eefb" stroke="#8b5cf6" points="841.48,-454.5 841.48,-535.5 1208.19,-535.5 1208.19,-454.5 841.48,-454.5"/>
<text text-anchor="middle" x="1024.84" y="-520.1" font-family="Helvetica,sans-Serif" font-size="12.00">core/ (portable)</text>
</g>
<g id="clust7" class="cluster">
<title>cluster_dtn</title>
<polygon fill="#ecdffc" stroke="#6b3fb8" points="521.32,-380.5 521.32,-535.5 694.82,-535.5 694.82,-380.5 521.32,-380.5"/>
<text text-anchor="middle" x="608.07" y="-520.1" font-family="Helvetica,sans-Serif" font-size="12.00">native/ (desktop — crossterm)</text>
</g>
<g id="clust8" class="cluster">
<title>cluster_runtime</title>
<polygon fill="#f0f8f0" stroke="#2a7d2a" points="293.78,-572.5 293.78,-901.5 1107.44,-901.5 1107.44,-572.5 293.78,-572.5"/>
<text text-anchor="middle" x="700.61" y="-884.2" font-family="Helvetica,sans-Serif" font-size="14.00">crates/runtime/</text>
</g>
<!-- cli -->
<g id="node1" class="node">
<title>cli</title>
<polygon fill="#fdf6e3" stroke="black" points="69.25,-959.5 0,-959.5 0,-923.5 75.25,-923.5 75.25,-953.5 69.25,-959.5"/>
<polyline fill="none" stroke="black" points="69.25,-959.5 69.25,-953.5"/>
<polyline fill="none" stroke="black" points="75.25,-953.5 69.25,-953.5"/>
<text text-anchor="middle" x="37.62" y="-943.05" font-family="Helvetica,sans-Serif" font-size="11.00">CLI args</text>
<text text-anchor="middle" x="37.62" y="-931.05" font-family="Helvetica,sans-Serif" font-size="11.00">(led FILE…)</text>
</g>
<!-- Tabs -->
<g id="node5" class="node">
<title>Tabs</title>
<path fill="#4a90e2" stroke="black" d="M261.5,-959.5C261.5,-961.7 241.95,-963.5 217.88,-963.5 193.8,-963.5 174.25,-961.7 174.25,-959.5 174.25,-959.5 174.25,-923.5 174.25,-923.5 174.25,-921.29 193.8,-919.5 217.88,-919.5 241.95,-919.5 261.5,-921.29 261.5,-923.5 261.5,-923.5 261.5,-959.5 261.5,-959.5"/>
<path fill="none" stroke="black" d="M261.5,-959.5C261.5,-957.29 241.95,-955.5 217.88,-955.5 193.8,-955.5 174.25,-957.29 174.25,-959.5"/>
<text text-anchor="middle" x="217.88" y="-943.05" font-family="Helvetica,sans-Serif" font-size="11.00" fill="white">Tabs</text>
<text text-anchor="middle" x="217.88" y="-931.05" font-family="Helvetica,sans-Serif" font-size="11.00" fill="white">(user&#45;decision)</text>
</g>
<!-- cli&#45;&gt;Tabs -->
<g id="edge31" class="edge">
<title>cli&#45;&gt;Tabs</title>
<path fill="none" stroke="#8a5fb8" stroke-dasharray="5,2" d="M75.56,-941.5C100.74,-941.5 134.51,-941.5 162.73,-941.5"/>
<polygon fill="#8a5fb8" stroke="#8a5fb8" points="162.52,-945 172.52,-941.5 162.52,-938 162.52,-945"/>
<text text-anchor="middle" x="124.75" y="-942.7" font-family="Helvetica,sans-Serif" font-size="9.00">seed on startup</text>
</g>
<!-- tty_in -->
<g id="node2" class="node">
<title>tty_in</title>
<polygon fill="#fdf6e3" stroke="black" points="64.75,-506.5 4.5,-506.5 4.5,-470.5 70.75,-470.5 70.75,-500.5 64.75,-506.5"/>
<polyline fill="none" stroke="black" points="64.75,-506.5 64.75,-500.5"/>
<polyline fill="none" stroke="black" points="70.75,-500.5 64.75,-500.5"/>
<text text-anchor="middle" x="37.62" y="-490.05" font-family="Helvetica,sans-Serif" font-size="11.00">tty stdin</text>
<text text-anchor="middle" x="37.62" y="-478.05" font-family="Helvetica,sans-Serif" font-size="11.00">(raw keys)</text>
</g>
<!-- term_native -->
<g id="node12" class="node">
<title>term_native</title>
<polygon fill="#f4b6b6" stroke="black" points="655.32,-506.5 563.82,-506.5 559.82,-502.5 559.82,-470.5 651.32,-470.5 655.32,-474.5 655.32,-506.5"/>
<polyline fill="none" stroke="black" points="651.32,-502.5 559.82,-502.5"/>
<polyline fill="none" stroke="black" points="651.32,-502.5 651.32,-470.5"/>
<polyline fill="none" stroke="black" points="651.32,-502.5 655.32,-506.5"/>
<text text-anchor="middle" x="607.57" y="-490.05" font-family="Helvetica,sans-Serif" font-size="11.00">bg thread</text>
<text text-anchor="middle" x="607.57" y="-478.05" font-family="Helvetica,sans-Serif" font-size="11.00">crossterm::event</text>
</g>
<!-- tty_in&#45;&gt;term_native -->
<g id="edge27" class="edge">
<title>tty_in&#45;&gt;term_native</title>
<path fill="none" stroke="#8a5fb8" stroke-dasharray="5,2" d="M71.2,-488.5C163.81,-488.5 429.57,-488.5 548.18,-488.5"/>
<polygon fill="#8a5fb8" stroke="#8a5fb8" points="548.02,-492 558.02,-488.5 548.02,-485 548.02,-492"/>
<text text-anchor="middle" x="217.88" y="-489.7" font-family="Helvetica,sans-Serif" font-size="9.00">crossterm::event</text>
</g>
<!-- tty_out -->
<g id="node3" class="node">
<title>tty_out</title>
<polygon fill="#fdf6e3" stroke="black" points="944.61,-142.5 858.11,-142.5 858.11,-106.5 950.61,-106.5 950.61,-136.5 944.61,-142.5"/>
<polyline fill="none" stroke="black" points="944.61,-142.5 944.61,-136.5"/>
<polyline fill="none" stroke="black" points="950.61,-136.5 944.61,-136.5"/>
<text text-anchor="middle" x="904.36" y="-126.05" font-family="Helvetica,sans-Serif" font-size="11.00">tty stdout</text>
<text text-anchor="middle" x="904.36" y="-114.05" font-family="Helvetica,sans-Serif" font-size="11.00">(ANSI escapes)</text>
</g>
<!-- disk -->
<g id="node4" class="node">
<title>disk</title>
<polygon fill="#fdf6e3" stroke="black" points="68.88,-43.5 0.38,-43.5 0.38,-7.5 74.88,-7.5 74.88,-37.5 68.88,-43.5"/>
<polyline fill="none" stroke="black" points="68.88,-43.5 68.88,-37.5"/>
<polyline fill="none" stroke="black" points="74.88,-37.5 68.88,-37.5"/>
<text text-anchor="middle" x="37.62" y="-27.05" font-family="Helvetica,sans-Serif" font-size="11.00">disk</text>
<text text-anchor="middle" x="37.62" y="-15.05" font-family="Helvetica,sans-Serif" font-size="11.00">(files on FS)</text>
</g>
<!-- file_native -->
<g id="node9" class="node">
<title>file_native</title>
<polygon fill="#f4b6b6" stroke="black" points="1072.96,-306.5 1007.71,-306.5 1003.71,-302.5 1003.71,-270.5 1068.96,-270.5 1072.96,-274.5 1072.96,-306.5"/>
<polyline fill="none" stroke="black" points="1068.96,-302.5 1003.71,-302.5"/>
<polyline fill="none" stroke="black" points="1068.96,-302.5 1068.96,-270.5"/>
<polyline fill="none" stroke="black" points="1068.96,-302.5 1072.96,-306.5"/>
<text text-anchor="middle" x="1038.34" y="-290.05" font-family="Helvetica,sans-Serif" font-size="11.00">bg thread</text>
<text text-anchor="middle" x="1038.34" y="-278.05" font-family="Helvetica,sans-Serif" font-size="11.00">std::fs read</text>
</g>
<!-- disk&#45;&gt;file_native -->
<g id="edge26" class="edge">
<title>disk&#45;&gt;file_native</title>
<path fill="none" stroke="#8a5fb8" stroke-dasharray="5,2" d="M75.15,-25.5C111.18,-25.5 167.83,-25.5 216.88,-25.5 216.88,-25.5 216.88,-25.5 769.82,-25.5 859.88,-25.5 904.05,-26.32 959.23,-97.5 1003.35,-154.4 936.01,-199.46 977.23,-258.5 981.4,-264.46 987.1,-269.29 993.34,-273.2"/>
<polygon fill="#8a5fb8" stroke="#8a5fb8" points="991.64,-276.26 1002.11,-277.89 994.94,-270.09 991.64,-276.26"/>
<text text-anchor="middle" x="397.91" y="-26.7" font-family="Helvetica,sans-Serif" font-size="9.00">read_to_string</text>
</g>
<!-- desired_loaded_paths -->
<g id="node6" class="node">
<title>desired_loaded_paths</title>
<polygon fill="#c8f0c8" stroke="black" points="497.32,-943.5 447.61,-969.62 348.2,-969.62 298.5,-943.5 348.2,-917.37 447.61,-917.37 497.32,-943.5"/>
<text text-anchor="middle" x="397.91" y="-945.05" font-family="Helvetica,sans-Serif" font-size="11.00">desired_loaded_paths</text>
<text text-anchor="middle" x="397.91" y="-933.05" font-family="Helvetica,sans-Serif" font-size="11.00">(takes &amp;Tabs)</text>
</g>
<!-- Tabs&#45;&gt;desired_loaded_paths -->
<g id="edge1" class="edge">
<title>Tabs&#45;&gt;desired_loaded_paths</title>
<path fill="none" stroke="#666666" d="M261.97,-941.98C270.17,-942.07 279.08,-942.17 288.28,-942.27"/>
<polygon fill="#666666" stroke="#666666" points="288.07,-945.77 298.11,-942.39 288.15,-938.77 288.07,-945.77"/>
</g>
<!-- TabsOpenInput -->
<g id="node15" class="node">
<title>TabsOpenInput</title>
<ellipse fill="#d0ecd0" stroke="black" stroke-dasharray="5,2" cx="397.91" cy="-847.5" rx="62.76" ry="22.63"/>
<text text-anchor="middle" x="397.91" y="-849.05" font-family="Helvetica,sans-Serif" font-size="11.00">TabsOpenInput</text>
<text text-anchor="middle" x="397.91" y="-837.05" font-family="Helvetica,sans-Serif" font-size="11.00">(on Tabs)</text>
</g>
<!-- Tabs&#45;&gt;TabsOpenInput -->
<g id="edge2" class="edge">
<title>Tabs&#45;&gt;TabsOpenInput</title>
<path fill="none" stroke="black" stroke-dasharray="5,2" d="M258.39,-920.63C285.97,-906.07 322.85,-886.6 351.62,-871.41"/>
<polygon fill="black" stroke="black" points="352.88,-874.7 360.09,-866.93 349.62,-868.51 352.88,-874.7"/>
</g>
<!-- TabsActiveInput -->
<g id="node16" class="node">
<title>TabsActiveInput</title>
<ellipse fill="#d0ecd0" stroke="black" stroke-dasharray="5,2" cx="397.91" cy="-721.5" rx="64.88" ry="22.63"/>
<text text-anchor="middle" x="397.91" y="-723.05" font-family="Helvetica,sans-Serif" font-size="11.00">TabsActiveInput</text>
<text text-anchor="middle" x="397.91" y="-711.05" font-family="Helvetica,sans-Serif" font-size="11.00">(on Tabs)</text>
</g>
<!-- Tabs&#45;&gt;TabsActiveInput -->
<g id="edge3" class="edge">
<title>Tabs&#45;&gt;TabsActiveInput</title>
<path fill="none" stroke="black" stroke-dasharray="5,2" d="M221.44,-919.02C227.14,-879.56 244.51,-797.73 293.78,-752.5 303.05,-743.99 314.57,-737.81 326.52,-733.33"/>
<polygon fill="black" stroke="black" points="327.27,-736.77 335.65,-730.28 325.05,-730.13 327.27,-736.77"/>
</g>
<!-- BufferStore -->
<g id="node7" class="node">
<title>BufferStore</title>
<path fill="#e07b3a" stroke="black" d="M1079.71,-221.5C1079.71,-223.7 1061.17,-225.5 1038.34,-225.5 1015.51,-225.5 996.96,-223.7 996.96,-221.5 996.96,-221.5 996.96,-185.5 996.96,-185.5 996.96,-183.29 1015.51,-181.5 1038.34,-181.5 1061.17,-181.5 1079.71,-183.29 1079.71,-185.5 1079.71,-185.5 1079.71,-221.5 1079.71,-221.5"/>
<path fill="none" stroke="black" d="M1079.71,-221.5C1079.71,-219.29 1061.17,-217.5 1038.34,-217.5 1015.51,-217.5 996.96,-219.29 996.96,-221.5"/>
<text text-anchor="middle" x="1038.34" y="-205.05" font-family="Helvetica,sans-Serif" font-size="11.00" fill="white">BufferStore</text>
<text text-anchor="middle" x="1038.34" y="-193.05" font-family="Helvetica,sans-Serif" font-size="11.00" fill="white">(external&#45;fact)</text>
</g>
<!-- StoreLoadedInput -->
<g id="node17" class="node">
<title>StoreLoadedInput</title>
<ellipse fill="#d0ecd0" stroke="black" stroke-dasharray="5,2" cx="397.91" cy="-784.5" rx="72.3" ry="22.63"/>
<text text-anchor="middle" x="397.91" y="-786.05" font-family="Helvetica,sans-Serif" font-size="11.00">StoreLoadedInput</text>
<text text-anchor="middle" x="397.91" y="-774.05" font-family="Helvetica,sans-Serif" font-size="11.00">(on BufferStore)</text>
</g>
<!-- BufferStore&#45;&gt;StoreLoadedInput -->
<g id="edge4" class="edge">
<title>BufferStore&#45;&gt;StoreLoadedInput</title>
<path fill="none" stroke="black" stroke-dasharray="5,2" d="M1028.33,-181.17C1016.66,-155.62 993.64,-115.05 959.23,-97.5 857.72,-45.7 803.48,-43.07 702.82,-96.5 570.09,-166.94 558.88,-233.3 513.32,-376.5 506.96,-396.46 518.07,-736.87 505.32,-753.5 498.33,-762.6 488.83,-769.14 478.36,-773.83"/>
<polygon fill="black" stroke="black" points="477.14,-770.55 469.04,-777.38 479.63,-777.09 477.14,-770.55"/>
</g>
<!-- FileReadDriver -->
<g id="node8" class="node">
<title>FileReadDriver</title>
<polygon fill="#fae2cf" stroke="black" points="818.82,-225.5 718.82,-225.5 718.82,-189.5 818.82,-189.5 818.82,-225.5"/>
<text text-anchor="middle" x="768.82" y="-209.05" font-family="Helvetica,sans-Serif" font-size="11.00">FileReadDriver</text>
<text text-anchor="middle" x="768.82" y="-197.05" font-family="Helvetica,sans-Serif" font-size="11.00">process · execute</text>
</g>
<!-- FileReadDriver&#45;&gt;BufferStore -->
<g id="edge16" class="edge">
<title>FileReadDriver&#45;&gt;BufferStore</title>
<path fill="none" stroke="#d94545" stroke-width="2" d="M819.2,-206.76C865.84,-206.06 935.62,-205.02 983.63,-204.3"/>
<polygon fill="#d94545" stroke="#d94545" stroke-width="2" points="983.59,-207.8 993.53,-204.15 983.48,-200.8 983.59,-207.8"/>
<text text-anchor="middle" x="904.36" y="-217.37" font-family="Helvetica,sans-Serif" font-size="9.00">process</text>
<text text-anchor="middle" x="904.36" y="-207.62" font-family="Helvetica,sans-Serif" font-size="9.00">execute</text>
</g>
<!-- FileReadDriver&#45;&gt;file_native -->
<g id="edge23" class="edge">
<title>FileReadDriver&#45;&gt;file_native</title>
<path fill="none" stroke="#b22222" stroke-width="1.5" stroke-dasharray="5,2" d="M818.99,-223.26C826.49,-225.47 834.17,-227.62 841.48,-229.5 893.25,-242.74 908.36,-237.4 959.23,-253.75 970.13,-257.25 981.55,-261.79 992.18,-266.43"/>
<polygon fill="#b22222" stroke="#b22222" stroke-width="1.5" points="990.73,-269.62 1001.29,-270.53 993.61,-263.23 990.73,-269.62"/>
<text text-anchor="middle" x="904.36" y="-254.95" font-family="Helvetica,sans-Serif" font-size="9.00">ReadCmd</text>
</g>
<!-- file_native&#45;&gt;FileReadDriver -->
<g id="edge24" class="edge">
<title>file_native&#45;&gt;FileReadDriver</title>
<path fill="none" stroke="#b22222" stroke-width="1.5" stroke-dasharray="5,2" d="M1003.38,-289.52C963.18,-289.55 894.95,-285.79 841.48,-263.5 824.99,-256.62 809.08,-244.88 796.45,-233.92"/>
<polygon fill="#b22222" stroke="#b22222" stroke-width="1.5" points="798.92,-231.44 789.17,-227.31 794.22,-236.62 798.92,-231.44"/>
<text text-anchor="middle" x="904.36" y="-288.94" font-family="Helvetica,sans-Serif" font-size="9.00">ReadDone</text>
</g>
<!-- Terminal -->
<g id="node10" class="node">
<title>Terminal</title>
<path fill="#8b5cf6" stroke="black" d="M1200.19,-502.5C1200.19,-504.7 1181.65,-506.5 1158.82,-506.5 1135.99,-506.5 1117.44,-504.7 1117.44,-502.5 1117.44,-502.5 1117.44,-466.5 1117.44,-466.5 1117.44,-464.29 1135.99,-462.5 1158.82,-462.5 1181.65,-462.5 1200.19,-464.29 1200.19,-466.5 1200.19,-466.5 1200.19,-502.5 1200.19,-502.5"/>
<path fill="none" stroke="black" d="M1200.19,-502.5C1200.19,-500.29 1181.65,-498.5 1158.82,-498.5 1135.99,-498.5 1117.44,-500.29 1117.44,-502.5"/>
<text text-anchor="middle" x="1158.82" y="-486.05" font-family="Helvetica,sans-Serif" font-size="11.00" fill="white">Terminal</text>
<text text-anchor="middle" x="1158.82" y="-474.05" font-family="Helvetica,sans-Serif" font-size="11.00" fill="white">(external&#45;fact)</text>
</g>
<!-- TerminalDimsInput -->
<g id="node18" class="node">
<title>TerminalDimsInput</title>
<ellipse fill="#d0ecd0" stroke="black" stroke-dasharray="5,2" cx="397.91" cy="-603.5" rx="74.42" ry="22.63"/>
<text text-anchor="middle" x="397.91" y="-605.05" font-family="Helvetica,sans-Serif" font-size="11.00">TerminalDimsInput</text>
<text text-anchor="middle" x="397.91" y="-593.05" font-family="Helvetica,sans-Serif" font-size="11.00">(on Terminal)</text>
</g>
<!-- Terminal&#45;&gt;TerminalDimsInput -->
<g id="edge5" class="edge">
<title>Terminal&#45;&gt;TerminalDimsInput</title>
<path fill="none" stroke="black" stroke-dasharray="5,2" d="M1158.61,-462.17C1159.6,-408.68 1156.83,-270.18 1107.44,-169.5 1065.04,-83.05 1047.59,-49.76 959.23,-11.5 911.21,9.3 893.25,-3.83 841.48,-11.5 667.78,-37.22 606.22,-82.49 513.32,-231.5 443.53,-343.42 413.65,-500.95 403.39,-569.46"/>
<polygon fill="black" stroke="black" points="399.99,-568.53 402.02,-578.93 406.92,-569.54 399.99,-568.53"/>
</g>
<!-- TerminalInputDriver -->
<g id="node11" class="node">
<title>TerminalInputDriver</title>
<polygon fill="#e8ddfa" stroke="black" points="959.23,-506.5 849.48,-506.5 849.48,-470.5 959.23,-470.5 959.23,-506.5"/>
<text text-anchor="middle" x="904.36" y="-490.05" font-family="Helvetica,sans-Serif" font-size="11.00">TerminalInputDriver</text>
<text text-anchor="middle" x="904.36" y="-478.05" font-family="Helvetica,sans-Serif" font-size="11.00">process</text>
</g>
<!-- TerminalInputDriver&#45;&gt;Terminal -->
<g id="edge17" class="edge">
<title>TerminalInputDriver&#45;&gt;Terminal</title>
<path fill="none" stroke="#d94545" stroke-width="2" d="M959.52,-487.64C1002.23,-486.96 1061.5,-486.02 1104.1,-485.35"/>
<polygon fill="#d94545" stroke="#d94545" stroke-width="2" points="1104.05,-488.85 1113.99,-485.19 1103.94,-481.85 1104.05,-488.85"/>
<text text-anchor="middle" x="1038.34" y="-488.51" font-family="Helvetica,sans-Serif" font-size="9.00">process</text>
</g>
<!-- term_native&#45;&gt;TerminalInputDriver -->
<g id="edge25" class="edge">
<title>term_native&#45;&gt;TerminalInputDriver</title>
<path fill="none" stroke="#b22222" stroke-width="1.5" stroke-dasharray="5,2" d="M655.6,-488.5C704.64,-488.5 781.91,-488.5 837.11,-488.5"/>
<polygon fill="#b22222" stroke="#b22222" stroke-width="1.5" points="836.97,-492 846.97,-488.5 836.97,-485 836.97,-492"/>
<text text-anchor="middle" x="768.82" y="-489.7" font-family="Helvetica,sans-Serif" font-size="9.00">TermEvent</text>
</g>
<!-- paint -->
<g id="node13" class="node">
<title>paint</title>
<polygon fill="#f4b6b6" stroke="black" points="650.07,-465.5 565.07,-465.5 565.07,-429.5 650.07,-429.5 650.07,-465.5"/>
<text text-anchor="middle" x="607.57" y="-449.05" font-family="Helvetica,sans-Serif" font-size="11.00">paint()</text>
<text text-anchor="middle" x="607.57" y="-437.05" font-family="Helvetica,sans-Serif" font-size="11.00">ANSI escapes</text>
</g>
<!-- paint&#45;&gt;tty_out -->
<g id="edge29" class="edge">
<title>paint&#45;&gt;tty_out</title>
<path fill="none" stroke="#0a9a9a" stroke-dasharray="5,2" d="M650.35,-447.13C666.76,-444.68 684.18,-438.75 694.82,-425.5 712.63,-403.3 684.69,-191.43 702.82,-169.5 712.07,-158.3 790.64,-143.15 846.64,-133.6"/>
<polygon fill="#0a9a9a" stroke="#0a9a9a" points="847.08,-137.07 856.36,-131.96 845.92,-130.17 847.08,-137.07"/>
</g>
<!-- RawModeGuard -->
<g id="node14" class="node">
<title>RawModeGuard</title>
<polygon fill="#f4b6b6" stroke="black" points="655.32,-424.5 559.82,-424.5 559.82,-388.5 655.32,-388.5 655.32,-424.5"/>
<text text-anchor="middle" x="607.57" y="-408.05" font-family="Helvetica,sans-Serif" font-size="11.00">RawModeGuard</text>
<text text-anchor="middle" x="607.57" y="-396.05" font-family="Helvetica,sans-Serif" font-size="11.00">(RAII)</text>
</g>
<!-- RawModeGuard&#45;&gt;tty_out -->
<g id="edge30" class="edge">
<title>RawModeGuard&#45;&gt;tty_out</title>
<path fill="none" stroke="#8a5fb8" stroke-dasharray="5,2" d="M608.06,-388.17C607.75,-336.13 614.88,-187.13 702.82,-123.75 744,-94.06 803.33,-98.44 846.77,-107.7"/>
<polygon fill="#8a5fb8" stroke="#8a5fb8" points="845.73,-111.05 856.25,-109.87 847.29,-104.23 845.73,-111.05"/>
<text text-anchor="middle" x="768.82" y="-124.95" font-family="Helvetica,sans-Serif" font-size="9.00">raw · alt&#45;screen</text>
</g>
<!-- file_load_action -->
<g id="node19" class="node">
<title>file_load_action</title>
<polygon fill="#a8e6a8" stroke="black" points="831.48,-784.5 800.15,-802.5 737.48,-802.5 706.15,-784.5 737.48,-766.5 800.15,-766.5 831.48,-784.5"/>
<text text-anchor="middle" x="768.82" y="-780.05" font-family="Helvetica,sans-Serif" font-size="11.00">file_load_action</text>
</g>
<!-- TabsOpenInput&#45;&gt;file_load_action -->
<g id="edge6" class="edge">
<title>TabsOpenInput&#45;&gt;file_load_action</title>
<path fill="none" stroke="#666666" d="M455.34,-837.86C523.79,-826.17 638.65,-806.55 708.41,-794.64"/>
<polygon fill="#666666" stroke="#666666" points="708.87,-798.11 718.13,-792.98 707.69,-791.21 708.87,-798.11"/>
</g>
<!-- tab_bar_model -->
<g id="node20" class="node">
<title>tab_bar_model</title>
<polygon fill="#c8f0c8" stroke="black" points="1099.44,-665.5 1068.89,-683.5 1007.79,-683.5 977.23,-665.5 1007.79,-647.5 1068.89,-647.5 1099.44,-665.5"/>
<text text-anchor="middle" x="1038.34" y="-661.05" font-family="Helvetica,sans-Serif" font-size="11.00">tab_bar_model</text>
</g>
<!-- TabsActiveInput&#45;&gt;tab_bar_model -->
<g id="edge8" class="edge">
<title>TabsActiveInput&#45;&gt;tab_bar_model</title>
<path fill="none" stroke="#666666" d="M462.93,-719.66C607.44,-715.49 947.33,-705.39 959.23,-702.5 971.98,-699.4 985.12,-694.11 996.91,-688.48"/>
<polygon fill="#666666" stroke="#666666" points="998.15,-691.77 1005.52,-684.17 995.01,-685.51 998.15,-691.77"/>
</g>
<!-- body_model -->
<g id="node21" class="node">
<title>body_model</title>
<polygon fill="#c8f0c8" stroke="black" points="1090.07,-727.5 1064.2,-745.5 1012.47,-745.5 986.61,-727.5 1012.47,-709.5 1064.2,-709.5 1090.07,-727.5"/>
<text text-anchor="middle" x="1038.34" y="-723.05" font-family="Helvetica,sans-Serif" font-size="11.00">body_model</text>
</g>
<!-- TabsActiveInput&#45;&gt;body_model -->
<g id="edge9" class="edge">
<title>TabsActiveInput&#45;&gt;body_model</title>
<path fill="none" stroke="#666666" d="M463.05,-722.1C586.19,-723.26 854.25,-725.77 975.54,-726.91"/>
<polygon fill="#666666" stroke="#666666" points="975.26,-730.41 985.29,-727.01 975.33,-723.41 975.26,-730.41"/>
</g>
<!-- render_frame -->
<g id="node22" class="node">
<title>render_frame</title>
<polygon fill="#a8e6a8" stroke="black" points="825.23,-664.5 797.03,-682.5 740.61,-682.5 712.4,-664.5 740.61,-646.5 797.03,-646.5 825.23,-664.5"/>
<text text-anchor="middle" x="768.82" y="-660.05" font-family="Helvetica,sans-Serif" font-size="11.00">render_frame</text>
</g>
<!-- TabsActiveInput&#45;&gt;render_frame -->
<g id="edge12" class="edge">
<title>TabsActiveInput&#45;&gt;render_frame</title>
<path fill="none" stroke="#666666" d="M456.79,-711.69C474.88,-708.68 494.92,-705.4 513.32,-702.5 581.21,-691.79 659.43,-680.23 711.03,-672.7"/>
<polygon fill="#666666" stroke="#666666" points="711.38,-676.19 720.77,-671.28 710.37,-669.26 711.38,-676.19"/>
</g>
<!-- StoreLoadedInput&#45;&gt;file_load_action -->
<g id="edge7" class="edge">
<title>StoreLoadedInput&#45;&gt;file_load_action</title>
<path fill="none" stroke="#666666" d="M470.48,-784.5C534.81,-784.5 628.93,-784.5 693.96,-784.5"/>
<polygon fill="#666666" stroke="#666666" points="693.84,-788 703.84,-784.5 693.84,-781 693.84,-788"/>
</g>
<!-- StoreLoadedInput&#45;&gt;body_model -->
<g id="edge10" class="edge">
<title>StoreLoadedInput&#45;&gt;body_model</title>
<path fill="none" stroke="#666666" d="M467.84,-778.34C594.84,-767 863.48,-743.02 980.67,-732.55"/>
<polygon fill="#666666" stroke="#666666" points="980.71,-736.07 990.36,-731.69 980.09,-729.09 980.71,-736.07"/>
</g>
<!-- StoreLoadedInput&#45;&gt;render_frame -->
<g id="edge13" class="edge">
<title>StoreLoadedInput&#45;&gt;render_frame</title>
<path fill="none" stroke="#666666" d="M461.67,-773.58C476.85,-769.01 492.41,-762.57 505.32,-753.5 510.26,-750.02 508.34,-745.92 513.32,-742.5 582.14,-695.12 615.53,-719.85 694.82,-693.5 704.31,-690.34 714.36,-686.61 723.87,-682.89"/>
<polygon fill="#666666" stroke="#666666" points="724.91,-686.25 732.91,-679.3 722.32,-679.74 724.91,-686.25"/>
</g>
<!-- TerminalDimsInput&#45;&gt;render_frame -->
<g id="edge11" class="edge">
<title>TerminalDimsInput&#45;&gt;render_frame</title>
<path fill="none" stroke="#666666" d="M472.6,-602.17C533.3,-602.86 621.05,-607.98 694.82,-628.5 706.37,-631.71 718.29,-636.75 729.06,-642.05"/>
<polygon fill="#666666" stroke="#666666" points="727.14,-645 737.64,-646.47 730.35,-638.78 727.14,-645"/>
</g>
<!-- file_load_action&#45;&gt;FileReadDriver -->
<g id="edge22" class="edge">
<title>file_load_action&#45;&gt;FileReadDriver</title>
<path fill="none" stroke="#e08a2a" stroke-dasharray="5,2" d="M731.21,-769.68C721.47,-764.95 711.33,-759.18 702.82,-752.5 652.86,-713.27 633.26,-702.13 611.75,-642.37 556.07,-487.68 690.01,-302.17 745.8,-234.16"/>
<polygon fill="#e08a2a" stroke="#e08a2a" points="748.15,-236.81 751.86,-226.88 742.77,-232.33 748.15,-236.81"/>
<text text-anchor="middle" x="607.57" y="-633.82" font-family="Helvetica,sans-Serif" font-size="9.00">LoadAction</text>
</g>
<!-- render_frame&#45;&gt;paint -->
<g id="edge28" class="edge">
<title>render_frame&#45;&gt;paint</title>
<path fill="none" stroke="#0a9a9a" stroke-dasharray="5,2" d="M759.53,-646.35C746.24,-616.71 719.9,-555.89 702.82,-502.5 698.22,-488.12 705.42,-480.23 694.82,-469.5 685.92,-460.49 673.88,-455 661.63,-451.69"/>
<polygon fill="#0a9a9a" stroke="#0a9a9a" points="662.39,-448.27 651.88,-449.55 660.89,-455.11 662.39,-448.27"/>
</g>
<!-- render_frame&#45;&gt;tab_bar_model -->
<g id="edge14" class="edge">
<title>render_frame&#45;&gt;tab_bar_model</title>
<path fill="none" stroke="#2a6fdb" stroke-width="2" d="M819.92,-660.75C827.15,-660.33 834.5,-659.98 841.48,-659.75 893.79,-658.01 906.94,-657.82 959.23,-659.75 963.12,-659.89 967.11,-660.07 971.13,-660.28"/>
<polygon fill="#2a6fdb" stroke="#2a6fdb" stroke-width="2" points="970.8,-663.77 980.99,-660.87 971.21,-656.78 970.8,-663.77"/>
<text text-anchor="middle" x="904.36" y="-660.95" font-family="Helvetica,sans-Serif" font-size="9.00">calls</text>
</g>
<!-- render_frame&#45;&gt;body_model -->
<g id="edge15" class="edge">
<title>render_frame&#45;&gt;body_model</title>
<path fill="none" stroke="#2a6fdb" stroke-width="2" d="M810.74,-674.13C857.97,-685.25 935.66,-703.55 986.67,-715.56"/>
<polygon fill="#2a6fdb" stroke="#2a6fdb" stroke-width="2" points="985.54,-718.89 996.08,-717.78 987.14,-712.08 985.54,-718.89"/>
<text text-anchor="middle" x="904.36" y="-710.08" font-family="Helvetica,sans-Serif" font-size="9.00">calls</text>
</g>
<!-- dispatch -->
<g id="node23" class="node">
<title>dispatch</title>
<polygon fill="#d0ecd0" stroke="black" points="813.19,-856.5 724.44,-856.5 724.44,-820.5 813.19,-820.5 813.19,-856.5"/>
<text text-anchor="middle" x="768.82" y="-840.05" font-family="Helvetica,sans-Serif" font-size="11.00">dispatch</text>
<text text-anchor="middle" x="768.82" y="-828.05" font-family="Helvetica,sans-Serif" font-size="11.00">(event handler)</text>
</g>
<!-- dispatch&#45;&gt;Tabs -->
<g id="edge21" class="edge">
<title>dispatch&#45;&gt;Tabs</title>
<path fill="none" stroke="#d94545" stroke-width="2" d="M743.45,-856.87C699,-889.1 600.52,-954.69 505.32,-978.5 414.11,-1001.3 385.34,-999.87 293.78,-978.5 284.26,-976.27 274.55,-972.65 265.42,-968.52"/>
<polygon fill="#d94545" stroke="#d94545" stroke-width="2" points="267.06,-965.43 256.54,-964.21 264,-971.72 267.06,-965.43"/>
<text text-anchor="middle" x="397.91" y="-996.27" font-family="Helvetica,sans-Serif" font-size="9.00">Tab / Ctrl&#45;C</text>
</g>
<!-- main_loop -->
<g id="node24" class="node">
<title>main_loop</title>
<polygon fill="#90c890" stroke="black" points="494.03,-680.5 301.78,-680.5 301.78,-644.5 494.03,-644.5 494.03,-680.5"/>
<text text-anchor="middle" x="397.91" y="-665.17" font-family="Helvetica,sans-Serif" font-size="11.00">run()</text>
<text text-anchor="middle" x="397.91" y="-653.17" font-family="Helvetica,sans-Serif" font-size="11.00">ingest → query → execute → render</text>
</g>
<!-- main_loop&#45;&gt;FileReadDriver -->
<g id="edge18" class="edge">
<title>main_loop&#45;&gt;FileReadDriver</title>
<path fill="none" stroke="#2a7d2a" stroke-dasharray="5,2" d="M494.28,-645.96C498.37,-642.97 502.09,-639.51 505.32,-635.5 523.34,-613.05 499.32,-401.65 513.32,-376.5 555.28,-301.07 646.73,-253.25 707.8,-228.41"/>
<polygon fill="#2a7d2a" stroke="#2a7d2a" points="709.04,-231.69 717.04,-224.75 706.46,-225.18 709.04,-231.69"/>
</g>
<!-- main_loop&#45;&gt;TerminalInputDriver -->
<g id="edge19" class="edge">
<title>main_loop&#45;&gt;TerminalInputDriver</title>
<path fill="none" stroke="#2a7d2a" stroke-dasharray="5,2" d="M486.14,-644.02C492.77,-641.51 499.24,-638.69 505.32,-635.5 509.5,-633.3 509.24,-630.89 513.32,-628.5 619.48,-566.05 758.08,-524.51 838.26,-503.85"/>
<polygon fill="#2a7d2a" stroke="#2a7d2a" points="838.88,-507.3 847.71,-501.44 837.16,-500.52 838.88,-507.3"/>
</g>
<!-- main_loop&#45;&gt;dispatch -->
<g id="edge20" class="edge">
<title>main_loop&#45;&gt;dispatch</title>
<path fill="none" stroke="#2a7d2a" stroke-dasharray="5,2" d="M481.93,-680.91C489.94,-683.48 497.86,-686.33 505.32,-689.5 600.31,-729.76 610.99,-764.44 702.82,-811.5 706.29,-813.28 709.92,-815.03 713.59,-816.75"/>
<polygon fill="#2a7d2a" stroke="#2a7d2a" points="712.09,-819.91 722.64,-820.81 714.96,-813.52 712.09,-819.91"/>
</g>
</g>
</svg>
